<?xml version="1.0" standalone="no"?>
<!DOCTYPE svg PUBLIC "-//W3C//DTD SVG 20010904//EN"
 "http://www.w3.org/TR/2001/REC-SVG-20010904/DTD/svg10.dtd">
<svg version="1.0" xmlns="http://www.w3.org/2000/svg"
 width="500.000000pt" height="500.000000pt" viewBox="0 0 500.000000 500.000000"
 preserveAspectRatio="xMidYMid meet">
<metadata>
Created by potrace 1.14, written by Peter Selinger 2001-2017
</metadata>
<g transform="translate(0.000000,500.000000) scale(0.100000,-0.100000)"
fill="#000000" stroke="none">
<path d="M2438 4905 c-2 -1 -50 -5 -108 -9 -58 -3 -116 -8 -130 -10 -14 -3
-59 -10 -100 -16 -575 -90 -1108 -400 -1481 -860 -279 -345 -453 -745 -514
-1180 -19 -140 -19 -499 0 -640 46 -337 146 -623 335 -949 33 -57 133 -194
204 -278 228 -272 459 -454 781 -614 240 -119 498 -200 720 -225 28 -3 61 -8
75 -11 14 -2 113 -6 220 -8 194 -3 407 15 530 46 25 6 56 13 70 15 111 21 331
92 443 143 l62 29 55 -55 c161 -159 358 -216 565 -163 70 18 137 49 315 148
268 148 250 131 206 201 -12 20 -39 66 -59 102 l-35 66 26 15 c15 8 52 29 82
46 135 74 185 104 192 115 4 7 8 27 8 44 0 26 -6 36 -30 48 -34 18 -46 14
-165 -55 -38 -22 -77 -43 -85 -47 -8 -3 -32 -17 -52 -30 l-38 -23 -13 23 c-43
68 -167 297 -167 306 0 6 12 16 26 21 15 6 38 19 53 29 14 10 59 36 100 57 80
42 131 84 131 107 0 25 -40 67 -65 67 -13 0 -55 -18 -94 -40 -39 -22 -72 -40
-75 -40 -2 0 -34 -18 -70 -40 -66 -40 -86 -47 -86 -31 0 5 -20 44 -45 85 -25
42 -45 80 -45 84 0 4 -8 17 -18 29 l-17 23 -230 -129 c-143 -81 -251 -148
-286 -180 -170 -152 -233 -388 -164 -615 8 -28 12 -53 8 -56 -8 -7 -128 -57
-200 -84 -74 -27 -256 -75 -353 -92 -8 -2 -28 -5 -45 -8 -16 -3 -52 -9 -80
-12 -27 -3 -63 -8 -80 -11 -59 -10 -372 -11 -450 -2 -189 22 -208 26 -360 66
-387 104 -720 293 -1002 569 -248 244 -429 521 -547 837 -36 96 -92 299 -102
367 -3 19 -7 49 -11 65 -24 121 -34 408 -20 565 5 63 34 240 50 315 35 157
121 380 208 543 175 324 434 610 744 819 293 199 673 335 1035 372 87 9 455 7
500 -2 14 -3 48 -8 75 -12 253 -30 553 -127 775 -250 302 -168 556 -410 757
-723 88 -137 147 -256 198 -402 38 -109 79 -284 90 -380 7 -66 7 -273 0 -315
-6 -38 -13 -80 -21 -130 -9 -61 -51 -188 -91 -273 -110 -240 -317 -453 -548
-566 -260 -128 -477 -153 -737 -86 -272 70 -506 280 -673 603 -25 48 -60 68
-95 55 -54 -20 -53 -57 6 -167 131 -242 300 -420 508 -532 42 -22 76 -44 76
-47 -1 -15 -110 -86 -195 -127 -120 -58 -219 -79 -370 -80 -140 0 -206 7 -317
35 -340 84 -679 357 -834 670 -44 89 -67 153 -95 260 -30 113 -33 362 -6 485
67 308 245 636 490 901 34 37 79 86 100 108 l37 41 86 -92 c47 -51 131 -127
187 -168 56 -42 107 -80 113 -85 30 -23 260 -147 454 -245 118 -59 256 -131
306 -160 384 -226 495 -498 390 -955 -27 -118 -22 -147 26 -164 64 -23 89 31
129 273 12 75 15 234 5 307 -31 247 -163 438 -421 609 -99 66 -180 110 -545
296 -324 164 -528 326 -657 519 l-47 72 -141 -143 c-334 -341 -537 -670 -621
-1007 -33 -133 -39 -188 -39 -352 1 -168 19 -274 72 -420 118 -322 387 -616
703 -770 58 -29 113 -56 123 -61 10 -6 80 -26 155 -46 124 -32 152 -36 297
-39 180 -3 267 9 401 57 100 37 225 112 302 184 l58 53 69 -15 c99 -21 282
-25 390 -7 376 60 726 304 919 641 83 144 152 339 171 483 3 25 8 59 11 75 3
17 6 86 6 155 1 427 -154 841 -461 1230 -242 306 -570 550 -926 688 -82 31
-220 76 -270 87 -258 56 -302 62 -520 71 -77 3 -148 7 -157 8 -9 2 -18 3 -20
1z m1686 -3697 c22 -39 52 -93 104 -188 10 -19 51 -91 89 -160 38 -69 85 -152
103 -185 18 -33 50 -90 71 -128 21 -37 40 -74 41 -83 3 -17 -257 -168 -352
-205 -235 -89 -503 40 -587 282 -73 210 20 440 224 555 l38 22 105 -191 c122
-221 135 -239 175 -239 46 0 85 66 56 98 -4 5 -27 44 -50 87 -23 43 -71 130
-106 193 l-64 114 57 34 c31 19 60 35 64 35 4 1 18 -18 32 -41z"/>
<path d="M1849 3533 c-97 -104 -239 -314 -308 -458 -157 -324 -172 -650 -44
-934 44 -96 187 -301 159 -226 -32 85 -43 323 -20 445 60 317 235 527 471 566
121 20 199 11 608 -71 42 -9 262 -13 310 -6 l40 6 -30 21 c-60 43 -146 90
-405 222 -395 200 -533 287 -705 444 -16 16 -32 28 -35 28 -3 0 -22 -17 -41
-37z"/>
</g>
</svg>
